<?xml version="1.0" standalone="no"?><!DOCTYPE svg PUBLIC "-//W3C//DTD SVG 1.1//EN" "http://www.w3.org/Graphics/SVG/1.1/DTD/svg11.dtd"><svg t="1697018166730" class="icon" viewBox="0 0 1024 1024" version="1.1" xmlns="http://www.w3.org/2000/svg" p-id="4137" xmlns:xlink="http://www.w3.org/1999/xlink" width="200" height="200"><path d="M651.04571533 477.14587402c-95.66345215 0-173.89984131 77.86560059-173.89984131 173.89984131s77.86560059 173.89984131 173.89984131 173.89984131 173.89984131-77.86560059 173.89984131-173.89984131-78.23638916-173.89984131-173.89984131-173.89984131m0-57.84301757c127.9220581 0 231.74285888 103.82080078 231.74285889 231.74285888S778.96777344 882.78857422 651.04571533 882.78857422 419.30285644 778.96777344 419.30285644 651.04571533 523.12365723 419.30285644 651.04571533 419.30285644zM304.72918701 293.23474121H571.32617188c15.94390869 0 28.92150879 12.9776001 28.92150879 28.92150879s-12.9776001 28.92150879-28.92150879 28.92150879H304.72918701c-15.94390869 0-28.92150879-12.9776001-28.92150878-28.92150879s12.9776001-28.92150879 28.92150878-28.92150878z" fill="#909399" p-id="4138"></path><path d="M304.72918701 423.75231933h127.55126953c15.94390869 0 28.92150879 12.9776001 28.92150879 28.92150879s-12.9776001 28.92150879-28.92150879 28.9215088H304.72918701c-15.94390869 0-28.92150879-12.9776001-28.92150878-28.9215088s12.9776001-28.92150879 28.92150878-28.92150878zM651.04571533 632.13549805h98.62976074c10.38208008 0 18.91021729 8.52813721 18.91021729 18.91021728s-8.52813721 18.91021729-18.91021729 18.91021729h-98.62976074c-10.38208008 0-18.91021729-8.52813721-18.91021728-18.91021729s8.52813721-18.91021729 18.91021728-18.91021728z" fill="#909399" p-id="4139"></path><path d="M669.95593262 584.30377198v66.74194335c0 10.38208008-8.52813721 18.91021729-18.91021729 18.91021728s-18.91021729-8.52813721-18.91021728-18.91021728v-66.74194335c0-10.38208008 8.52813721-18.91021729 18.91021728-18.91021729s18.91021729 8.52813721 18.91021728 18.91021729z" fill="#909399" p-id="4140"></path><path d="M677.00091553 823.46240234c-1.11236573 0-2.22473145 0.37078857-2.9663086 0.37078858-16.31469727 2.22473145-33.37097168 0.74157715-33.37097167 0.74157715H227.97595214c-15.94390869 0-28.92150879-12.9776001-28.92150878-28.92150879V227.97595214c0-15.94390869 12.9776001-28.92150879 28.92150879-28.92150878h420.10345459c15.94390869 0 28.92150879 12.9776001 28.92150879 28.92150879V452.67382812h57.84301757V227.97595214c0-47.83172607-38.93280029-86.76452637-86.76452636-86.76452636H227.97595214C180.14422607 141.21142578 141.21142578 180.14422607 141.21142578 227.97595214v568.04809571c0 47.83172607 38.93280029 86.76452637 86.76452637 86.3937378h420.10345459c19.65179443 0 37.82043458-6.67419434 52.28118896-17.42706299h-23.35968018V823.46240234z" fill="#909399" p-id="4141"></path><path d="M734.47314453 803.43981934c-2.22473145 24.84283448-15.20233154 47.09014893-34.11254883 61.18011474h34.4833374v-61.55090332c0 0.37078857-0.37078857 0.37078857-0.37078857 0.37078858z" fill="#909399" p-id="4142"></path></svg>