<?xml version="1.0" standalone="no"?><!DOCTYPE svg PUBLIC "-//W3C//DTD SVG 1.1//EN" "http://www.w3.org/Graphics/SVG/1.1/DTD/svg11.dtd"><svg t="1697018210689" class="icon" viewBox="0 0 1024 1024" version="1.1" xmlns="http://www.w3.org/2000/svg" p-id="4649" xmlns:xlink="http://www.w3.org/1999/xlink" width="200" height="200"><path d="M288 384v-74.666667c0-123.722667 100.266667-224 224-224s224 100.224 224 224v74.666667h10.677333C811.445333 384 864 436.597333 864 501.333333v320c0 64.821333-52.469333 117.333333-117.322667 117.333334H277.333333C212.554667 938.666667 160 886.069333 160 821.333333V501.333333c0-64.821333 52.469333-117.333333 117.322667-117.333333H288z m64 0h320v-74.666667c0-88.426667-71.605333-160-160-160-88.384 0-160 71.626667-160 160v74.666667zM224 501.333333v320c0 29.397333 23.914667 53.333333 53.322667 53.333334H746.666667A53.269333 53.269333 0 0 0 800 821.333333V501.333333c0-29.397333-23.914667-53.333333-53.322667-53.333333H277.333333A53.269333 53.269333 0 0 0 224 501.333333z" fill="#909399" p-id="4650"></path></svg>