<?xml version="1.0" standalone="no"?><!DOCTYPE svg PUBLIC "-//W3C//DTD SVG 1.1//EN" "http://www.w3.org/Graphics/SVG/1.1/DTD/svg11.dtd"><svg t="1675657794747" class="icon" viewBox="0 0 1024 1024" version="1.1" xmlns="http://www.w3.org/2000/svg" p-id="9128" xmlns:xlink="http://www.w3.org/1999/xlink" width="200" height="200"><path d="M568.184329 540.61055c4.66246-7.100859 8.034074-15.458848 10.029346-24.84518 2.032601-9.580199 3.06576-19.867233 3.06576-30.573311 0-11.244331-1.006667-21.826382-2.992307-31.46438-1.943494-9.429681-5.211551-17.700972-9.715064-24.591105-4.404772-6.740819-10.380958-12.078806-17.757566-15.870667-7.427183-3.813536-16.825556-5.746193-27.937431-5.746193-11.078159 0-20.450041 2.074747-27.84712 6.170053-7.435612 4.113369-13.559908 9.672919-18.200693 16.519703-4.702197 6.935891-8.120772 15.181895-10.166619 24.509223-2.083176 9.504338-3.139213 19.655303-3.139213 30.15788 0 11.679029 0.98138 22.565728 2.918854 32.353041 1.895329 9.589832 5.11522 17.938189 9.559729 24.815076 4.356606 6.737207 10.273788 12.041477 17.587782 15.776743 7.375405 3.761757 16.856864 5.671536 28.183077 5.671536 11.185328 0 20.666787-2.079563 28.173444-6.179686C557.467414 553.208343 563.604955 547.587382 568.184329 540.61055L568.184329 540.61055zM568.184329 540.61055" fill="#e95d29" p-id="9129"></path><path d="M841.390998 268.722423l-658.974659-0.437106c-58.703406-0.042145-106.326244 47.530119-106.367185 106.243158l-0.124027 212.613955c-0.042145 58.715447 47.497607 106.34551 106.204625 106.391268l249.954576 0.18303 80.005983 63.839096 69.186716-63.730722 259.829792 0.140885c58.703406 0.040941 106.32504-47.526507 106.367185-106.243158l0.125231-212.613955C947.638972 316.393427 900.077545 268.763364 841.390998 268.722423L841.390998 268.722423zM392.274 583.338528c0 1.530472-0.405798 2.918854-1.208964 4.129023-0.857353 1.277601-2.18312 2.237306-3.954421 2.856238-1.255926 0.437106-2.822522 0.79835-4.798529 1.098183-1.908574 0.286587-4.225354 0.432289-6.891337 0.432289-2.927283 0-5.259717-0.140885-7.143004-0.432289-1.924228-0.303445-3.463129-0.661077-4.710626-1.101795-1.768893-0.615319-3.101885-1.581046-3.945992-2.852626-0.803167-1.201739-1.214985-2.593734-1.214985-4.129023l0-86.799785-85.66909 0 0 86.799785c0 1.530472-0.407002 2.918854-1.214985 4.129023-0.852537 1.277601-2.18312 2.237306-3.954421 2.856238-1.252314 0.437106-2.81891 0.79835-4.793712 1.098183-1.90737 0.286587-4.278337 0.432289-7.047877 0.432289-2.664779 0-5.00203-0.145702-6.956361-0.427472-2.037418-0.299833-3.63773-0.662281-4.898473-1.106612-1.771301-0.615319-3.101885-1.581046-3.950809-2.852626-0.803167-1.201739-1.208964-2.593734-1.208964-4.129023L238.711449 387.987234c0-1.537697 0.405798-2.927283 1.217393-4.136247 0.835679-1.260743 2.166262-2.220448 3.941176-2.847809 1.277601-0.445535 2.874301-0.803167 4.893656-1.101795 1.954332-0.287791 4.295195-0.433493 6.961178-0.433493 2.76954 0 5.142915 0.145702 7.04306 0.433493 1.966373 0.298629 3.535378 0.656261 4.798529 1.101795 1.77973 0.627361 3.106701 1.583454 3.950809 2.847809 0.811596 1.217393 1.218597 2.60698 1.218597 4.136247l0 77.989036 85.66909 0 0-77.989036c0-1.534084 0.411819-2.927283 1.218597-4.136247 0.835679-1.260743 2.166262-2.220448 3.941176-2.847809 1.263151-0.440718 2.802052-0.799554 4.707013-1.099387 1.883287-0.295016 4.219334-0.435901 7.146617-0.435901 2.665983 0 4.986376 0.145702 6.886521 0.433493 1.967577 0.298629 3.534174 0.656261 4.798529 1.101795 1.783343 0.627361 3.106701 1.583454 3.954421 2.847809 0.806779 1.217393 1.213781 2.60698 1.213781 4.136247L392.271592 583.338528 392.274 583.338528zM610.919531 528.797861c-3.998975 13.609278-10.070287 25.381026-18.045358 34.981696-8.029257 9.67051-18.233205 17.194025-30.330073 22.370656-12.023415 5.142915-26.190213 7.751099-42.107842 7.751099-15.688841 0-29.494394-2.391437-41.032538-7.102063-11.646517-4.756384-21.418176-11.78379-29.035614-20.885942-7.576497-9.044354-13.285362-20.387425-16.965237-33.710116-3.635322-13.134843-5.476464-28.423907-5.476464-45.438514 0-16.30416 2.007314-31.347578 5.96294-44.716026 4.000179-13.509333 10.104004-25.181137 18.14169-34.686679 8.075015-9.545279 18.300637-17.009791 30.386668-22.181605 12.024619-5.147732 26.190213-7.755915 42.109046-7.755915 15.373354 0 28.991061 2.362538 40.473813 7.018977 11.589922 4.702197 21.37603 11.666987 29.104251 20.706524 7.683667 8.994984 13.474413 20.229682 17.213292 33.397037 3.691917 12.990346 5.563162 28.047009 5.563162 44.753354C616.87645 500.015118 614.873953 515.321039 610.919531 528.797861L610.919531 528.797861zM786.867189 401.219613c-0.270933 1.895329-0.727305 3.427004-1.393199 4.681726-0.764634 1.443773-1.771301 2.558814-2.985082 3.301773-1.234251 0.761021-2.614205 1.14394-4.102531 1.14394l-53.767604 0 0 172.992679c0 1.530472-0.408206 2.918854-1.210168 4.129023-0.856149 1.277601-2.18312 2.237306-3.953217 2.856238-1.251109 0.437106-2.824931 0.79835-4.798529 1.098183-1.903758 0.286587-4.279541 0.432289-7.047877 0.432289-2.661166 0-5.00203-0.145702-6.951545-0.427472-2.042235-0.299833-3.642547-0.662281-4.90329-1.106612-1.766485-0.615319-3.10068-1.576229-3.945992-2.852626-0.803167-1.201739-1.214985-2.588918-1.214985-4.129023L690.59317 410.345849l-53.761583 0c-1.494347 0-2.879117-0.381715-4.113369-1.147553-1.259539-0.770655-2.266206-1.932657-2.977857-3.451087-0.552704-1.17284-0.980176-2.615409-1.295663-4.407181-0.301037-1.654499-0.449147-3.608831-0.449147-5.80038 0-2.186732 0.14811-4.157922 0.444331-5.862995 0.313078-1.821876 0.730918-3.301773 1.272784-4.523983 0.702018-1.583454 1.717115-2.793623 3.009165-3.591973 1.239068-0.762226 2.620225-1.148757 4.109756-1.148757L778.385172 380.411941c1.479898 0 2.861055 0.381715 4.094102 1.14394 1.252314 0.76945 2.266206 1.933861 3.032044 3.460721 0.645423 1.293255 1.089754 2.856238 1.35587 4.773242 0.232401 1.679786 0.349203 3.612443 0.349203 5.749805C787.216391 397.680623 787.099589 399.594014 786.867189 401.219613L786.867189 401.219613zM786.867189 401.219613" fill="#e95d29" p-id="9130"></path></svg>